<svg xmlns="http://www.w3.org/2000/svg" viewBox="0 0 360 920" fill="none" aria-hidden="true">
  <defs>
    <filter id="leaf-blur" x="-30%" y="-30%" width="160%" height="160%">
      <feGaussianBlur stdDeviation="14"/>
    </filter>
  </defs>
  <g filter="url(#leaf-blur)" fill="#4f5c45" opacity="0.28">
    <ellipse cx="48" cy="120" rx="105" ry="30" transform="rotate(-32 48 120)"/>
    <ellipse cx="72" cy="210" rx="88" ry="26" transform="rotate(-48 72 210)"/>
    <ellipse cx="28" cy="310" rx="118" ry="34" transform="rotate(-18 28 310)"/>
    <ellipse cx="90" cy="400" rx="92" ry="28" transform="rotate(-55 90 400)"/>
    <ellipse cx="40" cy="500" rx="110" ry="32" transform="rotate(-22 40 500)"/>
    <ellipse cx="78" cy="590" rx="85" ry="24" transform="rotate(-42 78 590)"/>
    <ellipse cx="22" cy="680" rx="125" ry="36" transform="rotate(-12 22 680)"/>
    <ellipse cx="65" cy="780" rx="95" ry="28" transform="rotate(-38 65 780)"/>
  </g>
</svg>
